<svg xmlns="http://www.w3.org/2000/svg" id="landingBlender" x="0" y="0" version="1.1" viewBox="0 0 350 350" xml:space="preserve">
  <defs/>
  <style>
    .st3{fill:none;stroke:#000;stroke-miterlimit:10}.st4{fill:#1e190e}.st5,.st7{fill:none;stroke:#000;stroke-width:2;stroke-miterlimit:10}.st7{stroke:#1e190e;stroke-width:3}.st12,.st8,.st9{fill:#002958;stroke:#000;stroke-miterlimit:10}.st12,.st9{fill:#47487c}.st12{fill:none;stroke:#1e0d0d;stroke-width:3}
  </style>
  <!-- <path id="bg_14_" fill="#ede9e8" d="M0 0h350v350H0z"/> -->
  <path id="arm_7_" fill="none" stroke="#000" stroke-miterlimit="10" stroke-width="5" d="M249.45 248.45c15.11 3.4 36.29 4.04 36.44 13.92.15 9.88-16.2 22.16-23.25 29.3 3.12 3.36 8.59 3.52 8.59 3.52"/>
  <g id="face_17_">
    <path id="faceback_22_" fill="#c39d63" stroke="#000" stroke-miterlimit="10" stroke-width="3" d="M260.03 296.54l-133.41 22.57c-6.59-37.15-7.38-72.97.44-106.81l97.41-16.48c20.35 31.44 31.85 65.11 35.56 100.72z"/>
    <path d="M157.42 263.37c1.05 15.86 21.77 14.26 20.35-1.58-1.04-15.86-21.77-14.25-20.35 1.58zM197.63 257.3c1.05 15.86 21.77 14.26 20.35-1.58-1.04-15.86-21.77-14.25-20.35 1.58z" class="st3"/>
    <path d="M172.94 264.3c.61 6.59-9.76 7.4-10.17.79-.22-2.81-6.48-9.58-6.48-9.58s16.44 5.98 16.65 8.79zM212.88 255.46c.61 6.59-9.76 7.4-10.17.79-.22-2.81 3.22-14.21 3.22-14.21s6.73 10.61 6.95 13.42z" class="st4"/>
    <path id="mouth_12_" d="M167.2 287.53c1.63-3.2 7.79 7.05 31.84-4.15 24.06-11.2 25.17-24.24 27.37-23.42 11.46 21.58-17.49 36.41-38.97 32.38-7.45-1.34-21.43-2.49-20.24-4.81z" class="st5"/>
    <g id="lashes_x26_brows_1_">
      <path d="M151.59 248.75c1.04.82 2.07 1.65 3.11 2.47M163.88 242.21c.32 1.34.64 2.69.96 4.03M178.31 247.29c-.52 1.08-1.04 2.17-1.55 3.25M191.94 246.7c1.51.14 2.96.9 3.92 2.08M202.03 237.55c.42 1.32.85 2.65 1.27 3.97M218.27 241.39l-2.52 2.82M158.31 225.71c-1.95 9.2-7.49 17.58-15.19 22.98M195.43 221.9c6.58 6.59 16.22 10 25.48 9.02" class="st5"/>
    </g>
  </g>
  <g id="handle">
    <path d="M242.7 68.04c.45 0 .88.1 1.3.31 2.95 1.52 6.23 7.5 5.89 11.88 2.92 15.21.82 33.33-4.1 53.08-.27 3.54-9.62 9.84-13.05 9.84-.82 0-1.3-.36-1.24-1.21 3.07-22.79 4.78-45.16 2.43-62.94.3-3.91 4.99-10.96 8.77-10.96m0-3c-5.7 0-11.36 8.56-11.76 13.73l-.02.31.04.31c2.01 15.18 1.24 34.93-2.43 62.15l-.01.08-.01.08c-.09 1.21.27 2.33 1.03 3.14.55.59 1.55 1.3 3.2 1.3 4.64 0 15.2-6.92 16-12.29 5.45-21.97 6.81-39.58 4.16-53.83.18-5.25-3.44-12.24-7.53-14.35-.83-.41-1.73-.63-2.67-.63z"/>
    <path d="M251.65 53.41c1.15 0 2.26.22 3.28.71C260.56 56.81 266 65 266.66 72.01c3.34 22.99-1.38 47.34-12.1 74.43-.71 4.76-17.8 11.62-25.05 11.62-2.12 0-3.39-.58-3.19-1.97 7.31-31.72 11.96-63.08 8.45-88.69.79-5.3 9.66-13.98 16.88-13.99m0-3c-8.62 0-18.82 9.63-19.85 16.54l-.06.42.06.43c3 21.87.33 49.71-8.4 87.61l-.03.11-.02.12c-.2 1.33.15 2.59.98 3.56 1.08 1.25 2.77 1.85 5.17 1.85 7.12 0 26.17-6.49 27.94-13.76 11.55-29.27 15.42-53.32 12.19-75.65-.79-8.01-6.79-17.07-13.41-20.23-1.39-.66-2.93-1-4.57-1z"/>
  </g>
  <g id="top_17_">
    <path d="M215.65 11c.75 0 1.25.15 1.42.47 1.67 3.13.57 7-2.44 8.6L88.84 83.84c-9.17 4.89-13.96 6.42-16.35 6.42-4.02 0-1.27-4.34-1.27-4.34-1.67-3.13 35.89-23.19 38.9-24.79l71.1-37.86C183.92 21.83 209.2 11 215.65 11m0-3c-7.48 0-33.76 11.51-35.83 12.61l-71.1 37.86c-1.9 1.01-11.88 6.35-21.31 11.89-5.56 3.26-9.92 6-12.95 8.14-3.27 2.3-6.03 4.45-6.3 6.78-.65 1.35-1.38 3.6-.29 5.59.49.89 1.74 2.39 4.63 2.39 2.16 0 6.35-.7 17.73-6.76l125.76-63.75.03-.01.03-.01c2.18-1.16 3.76-3.14 4.45-5.56.68-2.38.4-4.9-.77-7.1-.52-.95-1.63-2.07-4.08-2.07z"/>
    <path d="M158.96 19.93c2.88 0 5.67 1.54 7.12 4.24.95 1.78.28 3.99-1.49 4.95l-57.98 31.06c-.19.1-.38.15-.58.15-1.65 0-3.51-3.28-4.36-4.86-2.09-3.9-.61-5.59 3.3-7.68l50.22-26.91c1.19-.64 2.49-.95 3.77-.95m0-3c-1.81 0-3.6.45-5.2 1.31l-50.22 26.91c-2.51 1.35-8.4 4.5-4.52 11.74 1.71 3.19 3.88 6.45 7.01 6.45.7 0 1.37-.17 2-.5l57.98-31.06c1.57-.84 2.71-2.24 3.23-3.94.51-1.7.34-3.5-.5-5.07-1.94-3.61-5.68-5.84-9.78-5.84z"/>
  </g>
  <path id="bowl" d="M234.67 72.66c4.6 43.51.11 81.3-13.49 113.37l-95.29 16.12c-.19.1-.4.15-.63.15-8.09 0-35.39-65.91-39.42-89.39-.91-5.28-14.21-12.39-18.33-14.41-1.12-.55-.25-.74-.14-.76l167.3-25.08M67.38 97.75h-.02.02m169.94-28.52l-3.1.46-167.3 25.09-.06.01-.06.01c-1.55.3-2.63 1.38-2.82 2.81-.09.71-.07 2.47 2.21 3.59 9.85 4.85 16.33 10.12 16.69 12.23 2.25 13.09 10.86 36.64 18.39 54.17 16.2 37.7 21.86 37.7 23.99 37.7.51 0 1-.09 1.47-.25l94.95-16.07 1.62-.27.64-1.51c13.73-32.39 18.35-71.04 13.71-114.86l-.33-3.11z"/>
  <path id="mid_1_" fill="#fff" stroke="#1e190e" stroke-miterlimit="10" stroke-width="3" d="M223.33 187.3l-97.99 16.58c-2.17.37-3.64 2.44-3.28 4.61l.1.58c.37 2.17 2.44 3.64 4.61 3.28l97.99-16.58c2.17-.37 3.64-2.44 3.28-4.61l-.1-.58c-.37-2.17-2.44-3.64-4.61-3.28z"/>
  <g id="base_22_">
    <path d="M260.03 296.54l-133.41 22.57c-2.33.39-3.91 2.62-3.52 4.95.39 2.33 2.62 3.91 5.31 5.64l133.41-22.57c1.97-2.51 3.55-4.74 3.16-7.07-.4-2.33-2.62-3.91-4.95-3.52z" class="st7"/>
    <path d="M255.76 308.15l-121.29 20.52c-2.17.37-3.64 2.44-3.28 4.61l.1.58c.37 2.17 2.44 3.64 4.61 3.28l121.29-20.52c2.17-.37 3.64-2.44 3.28-4.61l-.1-.58c-.37-2.17-2.44-3.64-4.61-3.28z" class="st7"/>
  </g>
  <g id="blueberries">
    <circle cx="181.19" cy="178.42" r="11.08" class="st8"/>
    <path d="M178.06 168.67l1.74 1.45 2.18-.62-.83 2.1 1.26 1.88-2.26-.14-1.4 1.78-.56-2.19-2.13-.78 1.92-1.21z" class="st9"/>
    <circle cx="168.11" cy="193.55" r="11.08" class="st8"/>
    <path d="M177.02 198.6l-2.26.12-1.18 1.92-.81-2.11-2.2-.52 1.76-1.43-.18-2.26 1.9 1.24 2.09-.87-.59 2.19z" class="st9"/>
    <circle cx="213.75" cy="178.24" r="11.08" class="st8"/>
    <path d="M215.73 168.2l.83 2.1 2.2.51-1.74 1.44.19 2.25-1.91-1.21-2.08.88.57-2.19-1.48-1.71 2.25-.14z" class="st9"/>
    <circle cx="158.72" cy="118.31" r="11.08" class="st8"/>
    <path d="M168.25 114.58l-1.33 1.83.75 2.14-2.15-.71-1.79 1.38v-2.26l-1.86-1.29 2.15-.7.64-2.16 1.33 1.83z" class="st9"/>
    <circle cx="224.21" cy="107.54" r="11.08" class="st8"/>
    <path d="M215.95 113.59l.81-2.11-1.27-1.87 2.26.12 1.38-1.79.58 2.19 2.13.77-1.9 1.22-.07 2.26-1.75-1.43z" class="st9"/>
    <g>
      <circle cx="172.6" cy="153.73" r="11.08" class="st8"/>
      <path d="M169.47 143.98l1.74 1.44 2.18-.62-.83 2.1 1.26 1.88-2.26-.14-1.4 1.78-.56-2.19-2.13-.78 1.91-1.21z" class="st9"/>
    </g>
    <g>
      <circle cx="153.27" cy="140.84" r="11.08" class="st8"/>
      <path d="M143.13 139.45l2.05-.95.38-2.22 1.54 1.65 2.24-.32-1.11 1.97 1.01 2.03-2.22-.44-1.62 1.58-.27-2.24z" class="st9"/>
    </g>
    <g>
      <circle cx="164.89" cy="172.07" r="11.08" class="st8"/>
      <path d="M173.8 177.12l-2.26.12-1.18 1.93-.81-2.11-2.2-.53 1.76-1.43-.18-2.25 1.9 1.23 2.09-.87-.59 2.19z" class="st9"/>
    </g>
    <g>
      <circle cx="199.45" cy="189.16" r="11.08" class="st8"/>
      <path d="M208.3 184.01l-1.04 2.01 1.07 2-2.23-.37-1.56 1.64-.35-2.24-2.04-.98 2.02-1.02.31-2.24 1.59 1.6z" class="st9"/>
    </g>
  </g>
  <g id="Apple">
    <radialGradient id="SVGID_1_" cx="106.5398" cy="57.9418" r="65.0974" gradientTransform="matrix(.8351 .2619 -.2816 .898 100.7331 -16.3231)" gradientUnits="userSpaceOnUse">
      <stop offset="0" stop-color="#c53030"/>
      <stop offset=".4727" stop-color="#bd2424"/>
      <stop offset="1"/>
    </radialGradient>
    <path fill="url(#SVGID_1_)" d="M209.01 55.16c-4.95-2.16-10.54-1.66-15.88.93-2.76-4.31-6.66-7.55-11.48-9.06-13.13-4.12-28.03 6.13-33.28 22.88s1.13 33.67 14.26 37.79c3.9 1.22 7.95 1.17 11.87.06 2.01 3.97 4.98 7.04 8.83 8.72 11.65 5.08 26.84-4.53 33.94-21.47 7.09-16.93 3.39-34.77-8.26-39.85z"/>
    <path fill="#246a10" d="M193.22 54.97c-4.14-12.41 20.6-10.81 20.6-10.81s-16.45 23.22-20.6 10.81z"/>
    <path d="M192.36 56.65c.97-6.14-.64-12.57-4.31-17.22" class="st12"/>
  </g>
  <g id="pear_1_">
    <path d="M174.11 130.29c-3.54-5.72-9.62-9.81-16.25-10.94" class="st12"/>
    <radialGradient id="SVGID_2_" cx="243.9632" cy="111.7712" r="33.5319" fx="249.9431" fy="102.4756" gradientTransform="matrix(.3634 -.9316 .9316 .3634 9.0848 324.8427)" gradientUnits="userSpaceOnUse">
      <stop offset="0" stop-color="#859139"/>
      <stop offset=".4363" stop-color="#465917"/>
      <stop offset="1" stop-color="#141702"/>
    </radialGradient>
    <path fill="url(#SVGID_2_)" d="M171.87 125.79c-1.39 3.56-2.43 9.41-.14 10.87 5.47 3.5 13.42 21.63 31.93 30.21 15.28 2.16 23.85-5.05 28.68-17.5l-.46 1.19c4.87-12.43 3.45-23.54-9.26-32.3-19.43-6.21-37.56 1.74-43.95.61-2.68-.47-5.87 4.54-7.26 8.1"/>
  </g>
</svg>